<svg xmlns="http://www.w3.org/2000/svg" xmlns:xlink="http://www.w3.org/1999/xlink" x="0px" y="0px" viewBox="0 0 16 16" width="16" height="16"><g class="nc-icon-wrapper" fill="#333333"><path data-color="color-2" fill="#333333" d="M2,2h3V0H1C0.447,0,0,0.447,0,1v4h2V2z"></path> <path data-color="color-2" fill="#333333" d="M15,0h-4v2h3v3h2V1C16,0.447,15.553,0,15,0z"></path> <path data-color="color-2" fill="#333333" d="M14,14h-3v2h4c0.553,0,1-0.447,1-1v-4h-2V14z"></path> <path data-color="color-2" fill="#333333" d="M2,11H0v4c0,0.553,0.447,1,1,1h4v-2H2V11z"></path> <path fill="#333333" d="M4,10v2h8v-2c0,0-1-2-4-2S4,10,4,10z"></path> <circle fill="#333333" cx="8" cy="5" r="2"></circle></g></svg>