<svg id="Multicolor" xmlns="http://www.w3.org/2000/svg" xmlns:xlink="http://www.w3.org/1999/xlink" viewBox="0 0 100 112"><defs><style>.cls-1,.cls-14,.cls-18,.cls-8{fill:none;}.cls-2{fill:#e8f4fa;}.cls-3{clip-path:url(#clip-path);}.cls-4,.cls-5{fill:#ffcebf;}.cls-11,.cls-14,.cls-15,.cls-18,.cls-20,.cls-4,.cls-8,.cls-9{stroke:#191816;}.cls-15,.cls-18,.cls-20,.cls-4{stroke-miterlimit:10;}.cls-6{fill:#ffdcd1;}.cls-7{fill:#ffb59e;}.cls-11,.cls-14,.cls-8,.cls-9{stroke-linejoin:round;}.cls-9{fill:#009fd9;}.cls-10{fill:#00b8f0;}.cls-11{fill:#fff;}.cls-11,.cls-14{stroke-linecap:round;}.cls-12{fill:#191816;opacity:0.15;}.cls-13,.cls-15{fill:#daedf7;}.cls-16{fill:#bf8256;}.cls-17{fill:#915e3a;}.cls-19{fill:#c0dceb;}.cls-20{fill:#f0f0f0;}</style><clipPath id="clip-path"><circle class="cls-1" cx="50.5" cy="56" r="40"/></clipPath></defs><title>05- desktop-work-area-coffee-keyboard</title><g id="Background"><g id="New_Symbol_36-7" data-name="New Symbol 36"><circle class="cls-2" cx="50.5" cy="56" r="40"/></g></g><g id="Scene"><g class="cls-3"><path class="cls-4" d="M44,79.55a2.21,2.21,0,0,0,1.56-1.44A17.55,17.55,0,0,0,45,66.63,2.21,2.21,0,1,0,41,68.33a13,13,0,0,1,.44,8.36,2.22,2.22,0,0,0,1.39,2.81A2.29,2.29,0,0,0,44,79.55Z"/><path class="cls-4" d="M48.42,78.87A2.21,2.21,0,0,0,50,77.43,17.52,17.52,0,0,0,49.43,66a2.21,2.21,0,1,0-4.08,1.7A13,13,0,0,1,45.79,76a2.21,2.21,0,0,0,2.63,2.85Z"/><path class="cls-4" d="M52.56,78.33a2.21,2.21,0,0,0,1.56-1.44,17.52,17.52,0,0,0-.55-11.47,2.21,2.21,0,1,0-4.08,1.7,13,13,0,0,1,.44,8.36,2.21,2.21,0,0,0,2.63,2.85Z"/><path class="cls-5" d="M20.51,92.65l12.92,3,1.08-8.81c.89-6.3,4-5.82,6.91-8.4C46,74,47.73,72.14,53.57,65.92c.59-.9.66-1.18,1.21-.94a2.21,2.21,0,0,0,2-3.88L54.7,59.63a15.64,15.64,0,0,0-11.91-2.2c-11.68,2.1-18.67,19.13-20.41,27.81Z"/><path class="cls-6" d="M57.15,64.39,57,64.2l-2-1.48a14.63,14.63,0,0,0-11.15-3C32.88,61.68,26.49,79,25,87.53l-1.34,5.85-3.12-.73,1.87-7.41c1.74-8.68,8.73-25.71,20.41-27.81a15.64,15.64,0,0,1,11.91,2.2l2.11,1.47a2.21,2.21,0,0,1,.54,3.08A1.31,1.31,0,0,1,57.15,64.39Z"/><path class="cls-7" d="M50.77,62.45,44.5,67c-.09.06-.18.11-.27.18a14.08,14.08,0,0,1-4.46,2l-.25.07c-.62.16-.58-.26-.63-.78.8-4.78,3.9-7,7.56-7A11.29,11.29,0,0,1,50.77,62.45Z"/><path class="cls-8" d="M56.81,61.1,54.7,59.63a15.64,15.64,0,0,0-11.91-2.2c-11.68,2.1-18.67,19.13-20.41,27.81l-1.87,7.41,12.92,3,1.08-8.81c.89-6.3,4-5.82,6.91-8.4C46,74,47.73,72.14,53.57,65.92c.59-.9.66-1.18,1.21-.94a2.21,2.21,0,0,0,2-3.88ZM44.5,67c-.09.06-.18.11-.27.18a14.08,14.08,0,0,1-4.46,2l-.25.07c-.62.16-.58-.26-.63-.78.8-4.78,3.9-7,7.56-7a11.29,11.29,0,0,1,4.32.93Z"/><rect class="cls-9" x="23.59" y="82.07" width="7.74" height="17.13" rx="1.11" ry="1.11" transform="translate(-67.06 96.65) rotate(-76.78)"/><path class="cls-10" d="M21.08,85.17a1.09,1.09,0,0,0-1.32.82l-1.27,5.38a1.1,1.1,0,0,0,.83,1.33l1.61.38,1.77-7.53Z"/><rect class="cls-8" x="23.59" y="82.07" width="7.74" height="17.13" rx="1.11" ry="1.11" transform="translate(-67.06 96.65) rotate(-76.78)"/><path class="cls-11" d="M28.17,77.8h2.21a0,0,0,0,1,0,0V92.72a0,0,0,0,1,0,0H28.17a1.11,1.11,0,0,1-1.11-1.11V78.9A1.11,1.11,0,0,1,28.17,77.8Z" transform="translate(118.29 76.79) rotate(103.22)"/><path class="cls-12" d="M64.81,50.05a11.75,11.75,0,0,0-7.34,13,11,11,0,0,0,.61,2.19,11.3,11.3,0,0,0,1,2,11.74,11.74,0,1,0,5.72-17.21Z"/><path class="cls-13" d="M60,59.67,53.63,62.1A2.26,2.26,0,0,0,52.33,65h0a2.26,2.26,0,0,0,2.92,1.3l6.32-2.44Z"/><path class="cls-14" d="M60,59.67,53.63,62.1A2.26,2.26,0,0,0,52.33,65h0a2.26,2.26,0,0,0,2.92,1.3l6.32-2.44Z"/><path class="cls-15" d="M65.39,47.42a11.73,11.73,0,1,0,15.17,6.73A11.75,11.75,0,0,0,65.39,47.42Z"/><circle class="cls-16" cx="69.61" cy="58.37" r="8.39"/><path class="cls-17" d="M70.74,65.37a8.4,8.4,0,0,0,1.3-15,8.39,8.39,0,1,1-6.75,15.22A8.38,8.38,0,0,0,70.74,65.37Z"/><circle class="cls-14" cx="69.61" cy="58.37" r="8.39"/><path class="cls-4" d="M38.89,68.5a.5.5,0,0,0,0,.38.56.56,0,0,0,.67.4h0l.25-.07A14.12,14.12,0,0,0,44.5,67l6.65-4.84a2.29,2.29,0,0,1,.75-.34,2.21,2.21,0,0,1,2.69,1.6,2.58,2.58,0,0,1-.86,2.34C47.84,72,46.07,73.84,41.62,78.27"/><path class="cls-6" d="M39.46,69.3a18.26,18.26,0,0,0,5-2.3l6.65-4.83a2.13,2.13,0,0,1,.75-.35,2.2,2.2,0,0,1,2,.45C49.71,66.94,42.7,73,39.46,69.3Z"/><path class="cls-18" d="M38.89,68.5a.5.5,0,0,0,0,.38.56.56,0,0,0,.67.4h0l.25-.07A14.12,14.12,0,0,0,44.5,67l6.65-4.84a2.29,2.29,0,0,1,.75-.34,2.21,2.21,0,0,1,2.69,1.6,2.58,2.58,0,0,1-.86,2.34C47.84,72,46.07,73.84,41.62,78.27"/><path class="cls-4" d="M38.89,68.5a.5.5,0,0,0,0,.38.56.56,0,0,0,.67.4h0l.25-.07A14.12,14.12,0,0,0,44.5,67l6.65-4.84a2.29,2.29,0,0,1,.75-.34,2.21,2.21,0,0,1,2.69,1.6,2.58,2.58,0,0,1-.86,2.34C47.84,72,46.07,73.84,41.62,78.27"/><path class="cls-6" d="M39.46,69.3a18.26,18.26,0,0,0,5-2.3l6.65-4.83a2.13,2.13,0,0,1,.75-.35,2.2,2.2,0,0,1,2,.45C49.71,66.94,42.7,73,39.46,69.3Z"/><path class="cls-18" d="M38.89,68.5a.5.5,0,0,0,0,.38.56.56,0,0,0,.67.4h0l.25-.07A14.12,14.12,0,0,0,44.5,67l6.65-4.84a2.29,2.29,0,0,1,.75-.34,2.21,2.21,0,0,1,2.69,1.6,2.58,2.58,0,0,1-.86,2.34C47.84,72,46.07,73.84,41.62,78.27"/><rect class="cls-12" x="35" y="14.81" width="74" height="30" rx="2" ry="2"/><rect class="cls-19" x="35" y="11.49" width="74" height="30" rx="2" ry="2"/><path class="cls-13" d="M107,11.49H37a2,2,0,0,0-2,2v3a2,2,0,0,1,2-2h70a2,2,0,0,1,2,2v-3A2,2,0,0,0,107,11.49Z"/><rect class="cls-18" x="35" y="11.49" width="74" height="30" rx="2" ry="2"/><rect class="cls-20" x="37.5" y="13.99" width="5" height="2.5" rx="1" ry="1"/><rect class="cls-20" x="45.5" y="13.99" width="5" height="2.5" rx="1" ry="1"/><rect class="cls-20" x="52.5" y="13.99" width="5" height="2.5" rx="1" ry="1"/><rect class="cls-20" x="59.5" y="13.99" width="5" height="2.5" rx="1" ry="1"/><rect class="cls-20" x="66.5" y="13.99" width="5" height="2.5" rx="1" ry="1"/><rect class="cls-20" x="73.5" y="13.99" width="5" height="2.5" rx="1" ry="1"/><rect class="cls-20" x="80.5" y="13.99" width="5" height="2.5" rx="1" ry="1"/><rect class="cls-20" x="87.5" y="13.99" width="5" height="2.5" rx="1" ry="1"/><rect class="cls-20" x="94.5" y="13.99" width="5" height="2.5" rx="1" ry="1"/><rect class="cls-20" x="37.5" y="18.99" width="5" height="3.5" rx="1" ry="1"/><rect class="cls-20" x="44.5" y="18.99" width="5" height="3.5" rx="1" ry="1"/><rect class="cls-20" x="51.5" y="18.99" width="5" height="3.5" rx="1" ry="1"/><rect class="cls-20" x="58.5" y="18.99" width="5" height="3.5" rx="1" ry="1"/><rect class="cls-20" x="65.5" y="18.99" width="5" height="3.5" rx="1" ry="1"/><rect class="cls-20" x="72.5" y="18.99" width="5" height="3.5" rx="1" ry="1"/><rect class="cls-20" x="79.5" y="18.99" width="5" height="3.5" rx="1" ry="1"/><rect class="cls-20" x="86.5" y="18.99" width="5" height="3.5" rx="1" ry="1"/><rect class="cls-20" x="93.5" y="18.99" width="5" height="3.5" rx="1" ry="1"/><rect class="cls-20" x="100.5" y="18.99" width="6" height="3.5" rx="1" ry="1"/><rect class="cls-20" x="37.5" y="24.49" width="6.5" height="3.5" rx="1" ry="1"/><rect class="cls-20" x="46" y="24.49" width="5" height="3.5" rx="1" ry="1"/><rect class="cls-20" x="53" y="24.49" width="5" height="3.5" rx="1" ry="1"/><rect class="cls-20" x="60" y="24.49" width="5" height="3.5" rx="1" ry="1"/><rect class="cls-20" x="67" y="24.49" width="5" height="3.5" rx="1" ry="1"/><rect class="cls-20" x="74" y="24.49" width="5" height="3.5" rx="1" ry="1"/><rect class="cls-20" x="81" y="24.49" width="5" height="3.5" rx="1" ry="1"/><rect class="cls-20" x="88" y="24.49" width="5" height="3.5" rx="1" ry="1"/><rect class="cls-20" x="95" y="24.49" width="5" height="3.5" rx="1" ry="1"/><path class="cls-20" d="M98.5,33.49a1,1,0,0,1-1-1V31a1,1,0,0,1,1-1H101a1,1,0,0,0,1-1l0-3.49a1,1,0,0,1,1-1h2.5a1,1,0,0,1,1,1v7a1,1,0,0,1-1,1Z"/><rect class="cls-20" x="37.5" y="29.99" width="9" height="3.5" rx="1" ry="1"/><rect class="cls-20" x="48.5" y="29.99" width="5" height="3.5" rx="1" ry="1"/><rect class="cls-20" x="55.5" y="29.99" width="5" height="3.5" rx="1" ry="1"/><rect class="cls-20" x="62.5" y="29.99" width="5" height="3.5" rx="1" ry="1"/><rect class="cls-20" x="69.5" y="29.99" width="5" height="3.5" rx="1" ry="1"/><rect class="cls-20" x="76.5" y="29.99" width="5" height="3.5" rx="1" ry="1"/><rect class="cls-20" x="83.5" y="29.99" width="5" height="3.5" rx="1" ry="1"/><rect class="cls-20" x="90.5" y="29.99" width="5" height="3.5" rx="1" ry="1"/><rect class="cls-20" x="37.5" y="35.49" width="5" height="3.5" rx="1" ry="1"/><rect class="cls-20" x="44.5" y="35.49" width="5" height="3.5" rx="1" ry="1"/><rect class="cls-20" x="51.5" y="35.49" width="33" height="3.5" rx="1" ry="1"/><rect class="cls-20" x="86.5" y="35.49" width="5" height="3.5" rx="1" ry="1"/><rect class="cls-20" x="93.5" y="35.49" width="5" height="3.5" rx="1" ry="1"/><rect class="cls-20" x="100.5" y="35.49" width="5" height="3.5" rx="1" ry="1"/></g></g></svg>