<svg id="Multicolor" xmlns="http://www.w3.org/2000/svg" xmlns:xlink="http://www.w3.org/1999/xlink" viewBox="0 0 178 178"><defs><style>.cls-1,.cls-21,.cls-26,.cls-27,.cls-7{fill:none;}.cls-2{fill:#e8f4fa;}.cls-3{fill:#191816;opacity:0.15;}.cls-4{fill:#656769;}.cls-10,.cls-23,.cls-26,.cls-27,.cls-28,.cls-29,.cls-30,.cls-31,.cls-32,.cls-33,.cls-4,.cls-7{stroke:#191816;}.cls-10,.cls-21,.cls-26,.cls-28,.cls-31,.cls-32,.cls-33,.cls-4,.cls-7{stroke-linecap:round;}.cls-10,.cls-21,.cls-27,.cls-28,.cls-30,.cls-31,.cls-32,.cls-33,.cls-4,.cls-7{stroke-linejoin:round;}.cls-5{fill:#00b8f0;}.cls-6{fill:#4acfff;}.cls-8{fill:#e5f8ff;}.cls-28,.cls-9{fill:#fff;}.cls-10{fill:#bdbec0;}.cls-11{fill:#009fd9;}.cls-12{fill:#00dfeb;}.cls-13{fill:#6dd627;}.cls-14{fill:#ffe500;}.cls-15{fill:#ff8a14;}.cls-16{fill:#ff6242;}.cls-17{fill:#ff6196;}.cls-18{fill:#9f5ae5;}.cls-19{fill:#e0e0e0;}.cls-20{fill:#f0f0f0;}.cls-21{stroke:#48cf3e;}.cls-22{clip-path:url(#clip-path);}.cls-23,.cls-24{fill:#ffcebf;}.cls-23,.cls-26,.cls-29{stroke-miterlimit:10;}.cls-25{fill:#ffdcd1;}.cls-29,.cls-30{fill:#ffb59e;}.cls-31{fill:#daedf7;}.cls-32{fill:#bf8df2;}.cls-33{fill:#adc4d9;}</style><clipPath id="clip-path"><circle class="cls-1" cx="87.89" cy="89" r="81"/></clipPath></defs><title>04- surface-studio-hand-illustrator-dial</title><g id="Background"><g id="New_Symbol_61-18" data-name="New Symbol 61"><circle class="cls-2" cx="87.89" cy="89" r="81"/></g></g><g id="Scene"><path class="cls-3" d="M141.47,69.5h-108A4.5,4.5,0,0,0,29,74.61l6.44,48.14a3,3,0,0,0,3,2.59h98.09a3,3,0,0,0,3-2.59l6.44-48.14A4.5,4.5,0,0,0,141.47,69.5Z"/><path class="cls-4" d="M136.35,118.25H38.6a3,3,0,0,1-3-2.87l-2.74-64.5a3,3,0,0,1,3-3.13H139.1a3,3,0,0,1,3,3.13l-2.74,64.5A3,3,0,0,1,136.35,118.25Z"/><path class="cls-5" d="M131.78,112.25H43.17a1.5,1.5,0,0,1-1.5-1.44l-2.13-55.5A1.49,1.49,0,0,1,41,53.75h92.89a1.51,1.51,0,0,1,1.5,1.56l-2.14,55.5A1.5,1.5,0,0,1,131.78,112.25Z"/><path class="cls-6" d="M50.73,112.25l58.5-58.5H41a1.49,1.49,0,0,0-1.49,1.56l2.13,55.5a1.5,1.5,0,0,0,1.5,1.44Z"/><path class="cls-7" d="M131.78,112.25H43.17a1.5,1.5,0,0,1-1.5-1.44l-2.13-55.5A1.49,1.49,0,0,1,41,53.75h92.89a1.51,1.51,0,0,1,1.5,1.56l-2.14,55.5A1.5,1.5,0,0,1,131.78,112.25Z"/><path class="cls-8" d="M106.27,106.74H68.68a1.5,1.5,0,0,1-1.5-1.45L65.77,61a1.51,1.51,0,0,1,1.5-1.55h40.41a1.51,1.51,0,0,1,1.5,1.55l-1.41,44.25A1.49,1.49,0,0,1,106.27,106.74Z"/><path class="cls-9" d="M65.77,61l1.12,35.05,36.59-36.6H67.27A1.51,1.51,0,0,0,65.77,61Z"/><path class="cls-10" d="M126.48,53.75l-2.25,58.5h7.55a1.5,1.5,0,0,0,1.5-1.44l2.14-55.5a1.51,1.51,0,0,0-1.5-1.56Z"/><path class="cls-11" d="M68.64,79.23a13.47,13.47,0,0,0-10.33,0L63.48,91.7Z"/><path class="cls-12" d="M58.31,79.23a13.5,13.5,0,0,0-4.38,2.92A13.64,13.64,0,0,0,51,86.53L63.48,91.7Z"/><path class="cls-13" d="M51,86.53a13.61,13.61,0,0,0,0,10.34L63.48,91.7Z"/><path class="cls-14" d="M51,96.87a13.64,13.64,0,0,0,2.93,4.38,13.5,13.5,0,0,0,4.38,2.92L63.48,91.7Z"/><path class="cls-15" d="M58.31,104.17a13.47,13.47,0,0,0,10.33,0L63.48,91.7Z"/><path class="cls-16" d="M68.64,104.17A13.48,13.48,0,0,0,76,96.87L63.48,91.7Z"/><path class="cls-17" d="M76,96.87a13.49,13.49,0,0,0,0-10.34L63.48,91.7Z"/><path class="cls-18" d="M76,86.53a13.48,13.48,0,0,0-7.31-7.3L63.48,91.7Z"/><circle class="cls-7" cx="63.48" cy="91.7" r="13.5"/><circle class="cls-19" cx="63.48" cy="91.7" r="7.5"/><path class="cls-20" d="M63.48,88a7.49,7.49,0,0,1,7.23,5.62A7.22,7.22,0,0,0,71,91.7a7.5,7.5,0,0,0-15,0,7.22,7.22,0,0,0,.26,1.87A7.49,7.49,0,0,1,63.48,88Z"/><circle class="cls-7" cx="63.48" cy="91.7" r="7.5"/><line class="cls-7" x1="126.21" y1="61.25" x2="135.19" y2="61.25"/><line class="cls-7" x1="125.93" y1="68" x2="134.93" y2="68"/><line class="cls-7" x1="125.67" y1="74.75" x2="134.67" y2="74.75"/><line class="cls-7" x1="125.41" y1="81.5" x2="134.41" y2="81.5"/><line class="cls-7" x1="125.15" y1="88.25" x2="134.15" y2="88.25"/><path class="cls-21" d="M93.35,67.2c-8.62,5-9.25,12.25-2.87,18.75s2.87,9.72,0,12"/><g class="cls-22"><path class="cls-23" d="M27.8,88.75a3,3,0,0,1-2.19-3.08,52.5,52.5,0,0,1,5.6-20.56L31.79,64a3,3,0,0,1,5.35,2.71l-.58,1.14A46.58,46.58,0,0,0,31.6,86a3,3,0,0,1-3.19,2.81A4.09,4.09,0,0,1,27.8,88.75Z"/><path class="cls-24" d="M58.76,90.76a3,3,0,0,0-3.9,1.68,6.19,6.19,0,1,1-.15-4.93A3,3,0,0,0,60.14,85a12.18,12.18,0,0,0-20.78-2.09l-.19-.08A46.81,46.81,0,0,1,52.3,66.93l1-.78a3,3,0,1,0-3.66-4.76l-1,.78c-1,.75-1.9,1.54-2.82,2.36a3,3,0,0,0-4-4.43C18.92,79.87,26.92,96.58,24.21,106.43l-1.39,5.06,16.63,4.58.73-2.65c2.2-7.88,3.93-10.33,10.25-11.15a12.38,12.38,0,0,0,10-7.61A3,3,0,0,0,58.76,90.76Z"/><path class="cls-25" d="M26.07,112.39c.19-.68.54-2,1.19-4.34C30,98.2,22,81.49,44.85,61.72A3,3,0,0,1,46.42,61a2.91,2.91,0,0,0-.4-.61,3,3,0,0,0-4.23-.3C18.92,79.87,26.92,96.58,24.21,106.43l-1.39,5.06Z"/><path class="cls-26" d="M33.44,80.78A52.85,52.85,0,0,1,45.8,64.52"/><path class="cls-7" d="M58.76,90.76a3,3,0,0,0-3.9,1.68,6.19,6.19,0,1,1-.15-4.93A3,3,0,0,0,60.14,85a12.18,12.18,0,0,0-20.78-2.09l-.19-.08A46.81,46.81,0,0,1,52.3,66.93l1-.78a3,3,0,1,0-3.66-4.76l-1,.78c-1,.75-1.9,1.54-2.82,2.36a3,3,0,0,0-4-4.43C18.92,79.87,26.92,96.58,24.21,106.43l-1.39,5.06,16.63,4.58.73-2.65c2.2-7.88,3.93-10.33,10.25-11.15a12.38,12.38,0,0,0,10-7.61A3,3,0,0,0,58.76,90.76Z"/><rect class="cls-11" x="0.71" y="125.29" width="48" height="23.25" rx="1" ry="1" transform="translate(-113.85 124.39) rotate(-74.6)"/><path class="cls-5" d="M21.32,111.08a1.49,1.49,0,0,0-1.84,1L7.53,155.52a1.5,1.5,0,0,0,1,1.84l2.17.6,12.74-46.28Z"/><rect class="cls-27" x="0.71" y="125.29" width="48" height="23.25" rx="1" ry="1" transform="translate(-113.85 124.39) rotate(-74.6)"/><path class="cls-28" d="M30.43,101.48h3.5a0,0,0,0,1,0,0v20.25a0,0,0,0,1,0,0h-3.5a1,1,0,0,1-1-1V102.48A1,1,0,0,1,30.43,101.48Z" transform="translate(147.69 110.69) rotate(105.4)"/><path class="cls-29" d="M130.44,104.15a3,3,0,0,1,2.83,3.16l-.53,9.73a3,3,0,0,1-6-.32l.53-9.74A3,3,0,0,1,130.44,104.15Z"/><path class="cls-29" d="M127.34,103.21a3,3,0,0,1,1.24,4.06l-3.58,7a3,3,0,1,1-5.3-2.82l3.58-7A3,3,0,0,1,127.34,103.21Z"/><path class="cls-24" d="M137.72,116.3c4.5,1.75,6.46,2.58,9.8,5.63l3,2.66,13.18-13.18-3-2.46c-4.54-3.34-5.29-11.31-13.47-15.58-10.34-5.39-23.12-4.11-34.35,9.92a3,3,0,0,0,4.67,3.77c.74-.92,1.49-1.78,2.23-2.58a39.94,39.94,0,0,1,4.68-4.21c4.06-3,8.15-4.21,12.22-3.68,3.47.45,4.27,3.52,3.09,5.27-1.38,2.06-4.93,3.26-8.36,1.58l-6.95-3.17h0a39.94,39.94,0,0,0-4.68,4.21h0a3.16,3.16,0,0,0,.93.67C132.47,114.05,134.84,115.18,137.72,116.3Z"/><path class="cls-25" d="M114.35,106.45c10.53-14,22.53-15.31,32.22-9.91,7.11,4,8.24,11.08,11.75,14.76l2.63,2.89,2.77-2.78-3-2.46c-4.54-3.34-5.29-11.31-13.47-15.58-10.34-5.39-23.12-4.11-34.35,9.92a3,3,0,0,0,.45,4.21,2.32,2.32,0,0,0,.43.29A3.07,3.07,0,0,1,114.35,106.45Z"/><path class="cls-30" d="M139.78,101.86c-1.38,2.06-4.93,3.26-8.36,1.58l-6.94-3.17c4-3,8.14-4.21,12.21-3.68C140.16,97,141,100.11,139.78,101.86Z"/><path class="cls-7" d="M137.72,116.3c4.5,1.75,6.46,2.58,9.8,5.63l3,2.66,13.18-13.18-3-2.46c-4.54-3.34-5.29-11.31-13.47-15.58-10.34-5.39-23.12-4.11-34.35,9.92a3,3,0,0,0,4.67,3.77c.74-.92,1.49-1.78,2.23-2.58a39.94,39.94,0,0,1,4.68-4.21c4.06-3,8.15-4.21,12.22-3.68,3.47.45,4.27,3.52,3.09,5.27-1.38,2.06-4.93,3.26-8.36,1.58l-6.95-3.17h0a39.94,39.94,0,0,0-4.68,4.21h0a3.16,3.16,0,0,0,.93.67C132.47,114.05,134.84,115.18,137.72,116.3Z"/><rect class="cls-11" x="154.9" y="111.47" width="13.82" height="23.25" rx="1" ry="1" transform="translate(189.18 324.55) rotate(-135)"/><path class="cls-5" d="M164.08,111.05a1.51,1.51,0,0,1,2.12,0l7.65,7.65a1.49,1.49,0,0,1,0,2.12l-1.59,1.59-9.77-9.77Z"/><rect class="cls-27" x="154.9" y="111.47" width="13.82" height="23.25" rx="1" ry="1" transform="translate(189.18 324.55) rotate(-135)"/><path class="cls-28" d="M154.08,106.49h3.5a0,0,0,0,1,0,0v20.25a0,0,0,0,1,0,0h-3.5a1,1,0,0,1-1-1V107.49A1,1,0,0,1,154.08,106.49Z" transform="translate(127.96 -75.68) rotate(45)"/><polygon class="cls-31" points="119.53 111.08 112.82 110.86 117.02 105.63 149.72 90.57 152.22 96.02 119.53 111.08"/><rect class="cls-32" x="150.08" y="91.17" width="4.5" height="3" transform="translate(172.77 -84.46) rotate(65.27)"/><path class="cls-7" d="M148.35,91.2a3,3,0,0,0-4-1.47l-9.53,4.39"/><rect class="cls-33" x="143.88" y="90.68" width="6" height="9" transform="translate(171.89 -78.05) rotate(65.27)"/><path class="cls-24" d="M139.78,101.86c-1.38,2.06-4.93,3.26-8.36,1.58l-8.2-3.75a3,3,0,1,0-2.49,5.46c11.74,8.9,14.11,10,17,11.15"/><path class="cls-25" d="M124.16,103.63l8.2,3.75a5,5,0,0,0,7.18-3.8l.24-1.72c-1.38,2.06-4.93,3.26-8.36,1.58l-8.2-3.75a3,3,0,0,0-2.92,5.21A3,3,0,0,1,124.16,103.63Z"/><path class="cls-7" d="M139.78,101.86c-1.38,2.06-4.93,3.26-8.36,1.58l-8.2-3.75a3,3,0,1,0-2.49,5.46c11.74,8.9,14.11,10,17,11.15"/><path class="cls-24" d="M139.78,101.86c-1.38,2.06-4.93,3.26-8.36,1.58l-8.2-3.75a3,3,0,1,0-2.49,5.46c11.74,8.9,14.11,10,17,11.15"/><path class="cls-25" d="M124.16,103.63l8.2,3.75a5,5,0,0,0,7.18-3.8l.24-1.72c-1.38,2.06-4.93,3.26-8.36,1.58l-8.2-3.75a3,3,0,0,0-2.92,5.21A3,3,0,0,1,124.16,103.63Z"/><path class="cls-7" d="M139.78,101.86c-1.38,2.06-4.93,3.26-8.36,1.58l-8.2-3.75a3,3,0,1,0-2.49,5.46c11.74,8.9,14.11,10,17,11.15"/></g></g></svg>