<svg xmlns="http://www.w3.org/2000/svg" viewBox="0 0 25 25"><defs><style>.cls-1{fill:#d8ecff;}.cls-2{fill:#1e87f0;}</style></defs><title>polaroid-stack</title><g id="budicon-polaroid-stack"><path class="cls-1" d="M24,23.5a.5.5,0,0,1-.5.5H4.5a.5.5,0,0,1-.5-.5V22H20.5A1.5,1.5,0,0,0,22,20.5V4h1.5a.5.5,0,0,1,.5.5Z"/><polygon class="cls-1" points="1 16.22 6.485 11.192 12.293 17 1 17 1 16.22"/><path class="cls-1" d="M13.3536,16.6465,9.9571,13.25l5.5015-5.501L21,14.6758V17H13.5A.4984.4984,0,0,0,13.3536,16.6465Z"/><path class="cls-2" d="M5,7A2,2,0,1,0,3,5,2,2,0,0,0,5,7ZM5,4A1,1,0,1,1,4,5,1.0012,1.0012,0,0,1,5,4Z"/><path class="cls-2" d="M23.5,3H22V1.5A1.5,1.5,0,0,0,20.5,0H1.5A1.5,1.5,0,0,0,0,1.5v19A1.5,1.5,0,0,0,1.5,22H3v1.5A1.5,1.5,0,0,0,4.5,25h19A1.5,1.5,0,0,0,25,23.5V4.5A1.5,1.5,0,0,0,23.5,3ZM1,16.22l5.4849-5.0273L12.293,17H1Zm12.3535.4268L9.9571,13.25l5.5015-5.501L21,14.6758V17H13.5A.4984.4984,0,0,0,13.3536,16.6465ZM1.5,1h19a.5.5,0,0,1,.5.5V13.0742L15.8907,6.6875a.4993.4993,0,0,0-.3628-.1865.5255.5255,0,0,0-.3813.1455L9.25,12.543,6.8536,10.1465a.501.501,0,0,0-.6914-.0146L1,14.8638V1.5A.5.5,0,0,1,1.5,1ZM1,20.5V18H21v2.5a.5.5,0,0,1-.5.5H1.5A.5.5,0,0,1,1,20.5Zm23,3a.5.5,0,0,1-.5.5H4.5a.5.5,0,0,1-.5-.5V22H20.5A1.5,1.5,0,0,0,22,20.5V4h1.5a.5.5,0,0,1,.5.5Z"/></g></svg>
