<svg id="Multicolor" xmlns="http://www.w3.org/2000/svg" viewBox="0 0 100 112"><defs><style>.cls-1{fill:#e8f4fa;}.cls-2{fill:#ffe500;}.cls-3{fill:#fff48c;}.cls-4{fill:none;}.cls-4,.cls-6,.cls-7{stroke:#191816;}.cls-4,.cls-7{stroke-linecap:round;stroke-linejoin:round;}.cls-5{fill:#191816;opacity:0.15;}.cls-6{fill:#ffef9e;}.cls-7{fill:#ffec60;}</style></defs><title>11- star-top-five</title><g id="New_Symbol_1-14" data-name="New Symbol 1"><circle class="cls-1" cx="51" cy="52.96" r="40" transform="translate(-17.82 78.86) rotate(-66.7)"/></g><path class="cls-2" d="M60.37,31.8a2.14,2.14,0,0,1,3.8,1.36L64,46.42a2.16,2.16,0,0,0,1.42,2L77,52.58a2.16,2.16,0,0,1,1.42,2,2.13,2.13,0,0,1-1.43,2L64.59,61a2.15,2.15,0,0,0-1.43,1.9L62.44,75.9a2.14,2.14,0,0,1-4,1L51.79,65.78a2.14,2.14,0,0,0-2.55-.91L37,69.22a2.14,2.14,0,0,1-2.44-3.28l7.72-10.55a2.13,2.13,0,0,0,.1-2.37L35.6,41.81a2.14,2.14,0,0,1,2.55-3.12l11.52,4.12a2.14,2.14,0,0,0,2.39-.67Z"/><path class="cls-3" d="M64.13,37.08l0-3.92a2.14,2.14,0,0,0-3.8-1.36L52.06,42.14a2.14,2.14,0,0,1-2.39.67L38.15,38.69a2.14,2.14,0,0,0-2.55,3.12l2,3.33a2.27,2.27,0,0,1,2.13-.45l11.53,4.12a2.14,2.14,0,0,0,2.39-.67L62,37.8A2.29,2.29,0,0,1,64.13,37.08Z"/><path class="cls-4" d="M60.37,31.8a2.14,2.14,0,0,1,3.8,1.36L64,46.42a2.16,2.16,0,0,0,1.42,2L77,52.58a2.16,2.16,0,0,1,1.42,2,2.13,2.13,0,0,1-1.43,2L64.59,61a2.15,2.15,0,0,0-1.43,1.9L62.44,75.9a2.14,2.14,0,0,1-4,1L51.79,65.78a2.14,2.14,0,0,0-2.55-.91L37,69.22a2.14,2.14,0,0,1-2.44-3.28l7.72-10.55a2.13,2.13,0,0,0,.1-2.37L35.6,41.81a2.14,2.14,0,0,1,2.55-3.12l11.52,4.12a2.14,2.14,0,0,0,2.39-.67Z"/><ellipse class="cls-5" cx="61.03" cy="84.9" rx="5.75" ry="1.72"/><path class="cls-6" d="M51.86,45.67l3.38,0h2.1a7.08,7.08,0,0,1,.78,0,1.72,1.72,0,0,1,.58.21c.4.21.6.81.6,1.79s-.18,1.43-.56,1.62a1.75,1.75,0,0,1-.54.22,6.41,6.41,0,0,1-.73,0h-3.9c0,.18-.1.74-.22,1.69a4.88,4.88,0,0,1,.78,0,5.43,5.43,0,0,1,3.81,1.59,5.18,5.18,0,0,1,1.7,3.9,5.5,5.5,0,0,1-1.61,4,5.32,5.32,0,0,1-4,1.67,6.93,6.93,0,0,1-3.75-1,3.92,3.92,0,0,1-.55-.43l-.18-.15a2,2,0,0,1-.85-1.34A2.34,2.34,0,0,1,49.54,58a1.83,1.83,0,0,1,1.29-.74,2.55,2.55,0,0,1,1.49.72,1.77,1.77,0,0,0,1.4.47A2.19,2.19,0,0,0,55.19,58a1.47,1.47,0,0,0,.48-1.17,1.45,1.45,0,0,0-.53-1.18A1.8,1.8,0,0,0,54,55.19a1.43,1.43,0,0,0-1.07.4,1.88,1.88,0,0,1-1.21.51,3.1,3.1,0,0,1-1.41-.42,5.09,5.09,0,0,1-1-.68.8.8,0,0,1-.24-.55c0-.19.15-1.39.45-3.59s.45-3.34.46-3.43a3.21,3.21,0,0,1,.16-.47,3.41,3.41,0,0,1,.32-.6,1.67,1.67,0,0,1,.58-.48A1.88,1.88,0,0,1,51.86,45.67Z"/><g id="_Group_" data-name="&lt;Group&gt;"><path class="cls-7" d="M40.89,27A2.75,2.75,0,0,1,43,24.9l4.15-1a.35.35,0,0,0,.27-.34.33.33,0,0,0-.27-.33l-4.15-1a2.77,2.77,0,0,1-2.07-2.07l-1-4.15a.33.33,0,0,0-.33-.27.35.35,0,0,0-.34.27l-1,4.15a2.75,2.75,0,0,1-2.07,2.07l-4.14,1a.33.33,0,0,0-.27.33.35.35,0,0,0,.27.34l4.14,1A2.74,2.74,0,0,1,38.3,27l1,4.16a.35.35,0,0,0,.34.26.33.33,0,0,0,.33-.26Z"/></g><path class="cls-7" d="M82.82,45.37l3.24-1.08a.31.31,0,0,0,0-.58l-2.67-.89a1.23,1.23,0,0,1-.77-.77l-.89-2.67a.31.31,0,0,0-.58,0l-.89,2.67a1.21,1.21,0,0,1-.77.77l-2.67.89a.31.31,0,0,0,0,.58l2.67.89a1.21,1.21,0,0,1,.77.77l.89,2.67a.31.31,0,0,0,.58,0Z"/><path class="cls-7" d="M26.24,61.24l3.24-1.08a.31.31,0,0,0,0-.58l-2.67-.89a1.23,1.23,0,0,1-.77-.77l-.89-2.67a.31.31,0,0,0-.58,0l-.89,2.67a1.21,1.21,0,0,1-.77.77l-2.67.89a.31.31,0,0,0,0,.58l2.67.89a1.21,1.21,0,0,1,.77.77l.89,2.67a.31.31,0,0,0,.58,0Z"/></svg>