<svg xmlns="http://www.w3.org/2000/svg" viewBox="0 0 25 25"><defs><style>.cls-1{fill:#d8ecff;}.cls-2{fill:#1e87f0;}</style></defs><title>chat-thread</title><g id="budicon-chat-thread"><path class="cls-1" d="M3,6v8a2,2,0,0,0,2,2h8.3335L16,18h2.3333l-4-3H5.5A1.5,1.5,0,0,1,4,13.5V5H1.5a.5007.5007,0,0,0-.5.5V6Z"/><path class="cls-1" d="M23.5,1.002H22V12.5a.5.5,0,0,1-.5.5H18v3.5L20,18h0V14h3.5a.5.5,0,0,0,.5-.5V1.502A.5.5,0,0,0,23.5,1.002Z"/><path class="cls-2" d="M19.5,5H9.5a.5.5,0,0,0,0,1h10a.5.5,0,0,0,0-1Z"/><path class="cls-2" d="M19.5,9H9.5a.5.5,0,0,0,0,1h10a.5.5,0,0,0,0-1Z"/><path class="cls-2" d="M23.5.002H5.5A1.5,1.5,0,0,0,4,1.502V4H1.5A1.5,1.5,0,0,0,0,5.5V17.498a1.5,1.5,0,0,0,1.5,1.5H4v3A1.0009,1.0009,0,0,0,5.0044,23,.985.985,0,0,0,5.6,22.7983l5.0664-3.8c.3636,0,8.7112.021,9.07-.0378a.9747.9747,0,0,0,.2592.0417A1.0009,1.0009,0,0,0,21,18V15h2.5A1.5,1.5,0,0,0,25,13.5V1.502A1.5,1.5,0,0,0,23.5.002ZM10.3306,18l-.2642.1982L5,21.998V18H4l-2.5-.002a.5.5,0,0,1-.5-.5V5.5A.5007.5007,0,0,1,1.5,5H4v8.5A1.5,1.5,0,0,0,5.5,15h8.8335l4,3ZM24,13.5a.5.5,0,0,1-.5.5H20v4h0l-5.0662-3.8L14.667,14H5.5a.5.5,0,0,1-.5-.5V1.502a.5.5,0,0,1,.5-.5h18a.5.5,0,0,1,.5.5Z"/></g></svg>
