<svg xmlns="http://www.w3.org/2000/svg" viewBox="0 0 25 25"><defs><style>.cls-1{fill:#d8ecff;}.cls-2{fill:#1e87f0;}</style></defs><title>vector-editing</title><g id="budicon-vector-editing"><polyline class="cls-1" points="1 24 16 9 17.667 10.667 3.833 24.583 1 24"/><path class="cls-2" d="M24,4a1,1,0,0,0,1-1V1a1,1,0,0,0-1-1H22a1,1,0,0,0-1,1V2H4V1A1,1,0,0,0,3,0H1A1,1,0,0,0,0,1V3A1,1,0,0,0,1,4H2v7.5a.5.5,0,0,0,1,0V4A1,1,0,0,0,4,3H21a1,1,0,0,0,1,1V21a1,1,0,0,0-1,1H13.5a.5.5,0,0,0,0,1H21v1a1,1,0,0,0,1,1h2a1,1,0,0,0,1-1V22a1,1,0,0,0-1-1H23V4ZM3,3H1V1H3ZM24,22v2H22V22ZM22,3V1h2V3Z"/><path class="cls-2" d="M17.5606,9.5605,15.4393,7.4395a1.5,1.5,0,0,0-2.1212,0L.4393,20.3179A1.5,1.5,0,0,0,0,21.3789V24a1,1,0,0,0,1,1H3.6213a1.5006,1.5006,0,0,0,1.0607-.4395L17.5606,11.6821A1.5,1.5,0,0,0,17.5606,9.5605ZM3.9749,23.8535A.4958.4958,0,0,1,3.6213,24H1V21.3789a.498.498,0,0,1,.1465-.354L12.2573,9.9141l2.8286,2.8286ZM16.8535,10.9746l-1.0605,1.061L12.9644,9.207l1.0607-1.0605a.5.5,0,0,1,.707,0l2.1213,2.1211A.5.5,0,0,1,16.8535,10.9746Z"/></g></svg>
