<svg id="Multicolor" xmlns="http://www.w3.org/2000/svg" viewBox="0 0 100 112"><defs><style>.cls-1,.cls-11{fill:#e8f4fa;}.cls-2{fill:#fff;}.cls-3{fill:none;}.cls-10,.cls-11,.cls-3,.cls-4,.cls-9{stroke:#191816;stroke-linejoin:round;}.cls-3,.cls-4{stroke-linecap:round;}.cls-4,.cls-6{fill:#ffe500;}.cls-5{fill:#bf8256;}.cls-7{fill:#fffacf;}.cls-8{fill:#dea47a;}.cls-9{fill:#9ceb60;}.cls-10{fill:#4acfff;}.cls-12,.cls-13{fill:#191816;}.cls-13{opacity:0.15;}.cls-14{fill:#ebcb00;}</style></defs><title>03- treasure-chest</title><g id="New_Symbol_84-2" data-name="New Symbol 84"><path class="cls-1" d="M91,53a40,40,0,1,0-76.44,16.5H87.44A39.85,39.85,0,0,0,91,53Z"/><path class="cls-2" d="M14.56,69.46a40,40,0,0,0,72.88,0Z"/><line class="cls-3" x1="12" y1="69.46" x2="90" y2="69.46"/><line class="cls-3" x1="7.5" y1="69.46" x2="10" y2="69.46"/><line class="cls-3" x1="92" y1="69.46" x2="94.5" y2="69.46"/></g><path class="cls-4" d="M31.1,59.46H74.3a0,0,0,0,1,0,0v18.2a1,1,0,0,1-1,1H32.1a1,1,0,0,1-1-1V59.46a0,0,0,0,1,0,0Z"/><path class="cls-5" d="M47.3,64.87a5.4,5.4,0,1,0,10.8,0v-3H70.9a1,1,0,0,1,1,1v12.4a1,1,0,0,1-1,1H34.5a1,1,0,0,1-1-1V62.87a1,1,0,0,1,1-1H47.3Z"/><path class="cls-6" d="M39.1,43.87H66.3a8,8,0,0,1,8,8v7.6a0,0,0,0,1,0,0H31.1a0,0,0,0,1,0,0v-7.6A8,8,0,0,1,39.1,43.87Z"/><path class="cls-7" d="M66.3,43.87H39.1a8,8,0,0,0-8,8v3.41a8,8,0,0,1,8-8H66.3a8,8,0,0,1,8,8V51.87A8,8,0,0,0,66.3,43.87Z"/><path class="cls-5" d="M61.7,43.87a9,9,0,0,1,9,9v3.2a1,1,0,0,1-1,1H58.1v-.61a5.4,5.4,0,0,0-10.8,0v.61H35.7a1,1,0,0,1-1-1v-3.2a9,9,0,0,1,9-9Z"/><path class="cls-8" d="M36.26,47.8a8.09,8.09,0,0,1,2.84-.52H66.3a8.09,8.09,0,0,1,2.84.52,9,9,0,0,0-7.44-3.93h-18A9,9,0,0,0,36.26,47.8Z"/><path class="cls-9" d="M28.78,69.16a1.17,1.17,0,0,1,.21.3H24.88l-1.09-1.09a3.72,3.72,0,0,1,0-5.26L24.91,62a.75.75,0,0,0,.22-.57.72.72,0,0,0-.28-.53l-.48-.38a3,3,0,0,1-.24-4.44l.66-.66-.26-.23a3,3,0,0,1-.3-4.23l-.53-.53a1.49,1.49,0,0,1,2.11-2.11l.52.53a3,3,0,0,1,.14,4.07l.26.24a3,3,0,0,1,.17,4.36l-.66.67.47.38A3.73,3.73,0,0,1,27,64.09L25.9,65.21a.75.75,0,0,0,0,1.06Z"/><path class="cls-9" d="M21.05,68.85a3.08,3.08,0,0,1,0,.61H18.46l0,0a.61.61,0,0,0,.18-.46.56.56,0,0,0-.23-.43l-.38-.31a2.4,2.4,0,0,1-.2-3.57l.54-.54L18.17,64a2.42,2.42,0,0,1-.24-3.41l-.43-.43a1.2,1.2,0,0,1,1.7-1.69l.43.42a2.41,2.41,0,0,1,.1,3.28l.22.19A2.4,2.4,0,0,1,20.79,64a2.43,2.43,0,0,1-.7,1.79l-.54.54.38.3A3,3,0,0,1,21.05,68.85Z"/><path class="cls-9" d="M76.62,69.16a1.17,1.17,0,0,0-.21.3h4.11l1.09-1.09a3.72,3.72,0,0,0,0-5.26L80.49,62a.75.75,0,0,1-.22-.57.72.72,0,0,1,.28-.53L81,60.5a3,3,0,0,0,.24-4.44l-.66-.66.26-.23a3,3,0,0,0,.3-4.23l.53-.53a1.49,1.49,0,1,0-2.11-2.11l-.52.53a3,3,0,0,0-.14,4.07l-.26.24a3,3,0,0,0-.17,4.36l.66.67-.47.38a3.73,3.73,0,0,0-.31,5.54l1.13,1.12a.77.77,0,0,1,0,1.06Z"/><path class="cls-9" d="M84.35,68.85a3.08,3.08,0,0,0,0,.61h2.56l0,0a.61.61,0,0,1-.18-.46.56.56,0,0,1,.23-.43l.38-.31a2.4,2.4,0,0,0,.2-3.57L87,64.13l.22-.18a2.42,2.42,0,0,0,.24-3.41l.43-.43a1.2,1.2,0,1,0-1.7-1.69l-.43.42a2.41,2.41,0,0,0-.1,3.28l-.22.19A2.44,2.44,0,0,0,84.61,64a2.4,2.4,0,0,0,.71,1.79l.53.54-.38.3A3,3,0,0,0,84.35,68.85Z"/><path class="cls-10" d="M71.9,31.87l5.71,2.59a.51.51,0,0,0,.52-.06.49.49,0,0,0,.18-.49L77.92,32a.61.61,0,0,1,0-.19l.39-1.95a.49.49,0,0,0-.18-.49.51.51,0,0,0-.52-.06Z"/><path class="cls-10" d="M75.5,31.87s-6.29-3-9.6-3a11.37,11.37,0,0,0-1.79.15,7.15,7.15,0,0,1,0,5.69,11.35,11.35,0,0,0,1.79.16C69.21,34.87,75.5,31.87,75.5,31.87Z"/><path class="cls-11" d="M64.11,29c-2.43.38-4.21,1.5-4.21,2.85s1.78,2.46,4.21,2.84a7.15,7.15,0,0,0,0-5.69Z"/><path class="cls-12" d="M62.9,31.27a.6.6,0,1,1-1.2,0,.6.6,0,0,1,1.2,0Z"/><ellipse class="cls-13" cx="52.5" cy="79.96" rx="19" ry="1.5"/><line class="cls-3" x1="38.3" y1="76.27" x2="38.3" y2="61.87"/><line class="cls-3" x1="43.1" y1="76.27" x2="43.1" y2="61.87"/><line class="cls-3" x1="47.9" y1="76.27" x2="47.9" y2="67.34"/><line class="cls-3" x1="67.1" y1="76.27" x2="67.1" y2="61.87"/><line class="cls-3" x1="62.3" y1="76.27" x2="62.3" y2="61.87"/><line class="cls-3" x1="57.5" y1="76.27" x2="57.5" y2="67.34"/><line class="cls-3" x1="52.7" y1="76.27" x2="52.7" y2="70.27"/><path class="cls-3" d="M39.1,43.87H66.3a8,8,0,0,1,8,8v7.6a0,0,0,0,1,0,0H31.1a0,0,0,0,1,0,0v-7.6A8,8,0,0,1,39.1,43.87Z"/><path class="cls-3" d="M38.3,57.07v-4.2c0-5,4.2-9,7.8-9"/><path class="cls-3" d="M43.1,57.07v-4.2c0-5,2.4-7.8,4.8-9"/><path class="cls-3" d="M67.1,57.07v-4.2c0-5-4.2-9-7.8-9"/><path class="cls-3" d="M62.3,57.07v-4.2c0-5-2.4-7.8-4.8-9"/><path class="cls-3" d="M57.5,54c0-3.6.6-7.12-2.4-10.12"/><path class="cls-3" d="M47.9,54c0-3.6-.6-7.12,2.4-10.12"/><line class="cls-3" x1="52.7" y1="51.07" x2="52.7" y2="43.87"/><path class="cls-14" d="M49.7,64.87a3,3,0,0,0,6,0V56.46a3,3,0,1,0-6,0Z"/><path class="cls-6" d="M55.7,56.46a3,3,0,1,0-6,0v6Z"/><path class="cls-3" d="M49.7,64.87a3,3,0,0,0,6,0V56.46a3,3,0,1,0-6,0Z"/><path class="cls-3" d="M47.3,64.87a5.4,5.4,0,1,0,10.8,0v-3H70.9a1,1,0,0,1,1,1v12.4a1,1,0,0,1-1,1H34.5a1,1,0,0,1-1-1V62.87a1,1,0,0,1,1-1H47.3Z"/><path class="cls-3" d="M61.7,43.87a9,9,0,0,1,9,9v3.2a1,1,0,0,1-1,1H58.1v-.61a5.4,5.4,0,0,0-10.8,0v.61H35.7a1,1,0,0,1-1-1v-3.2a9,9,0,0,1,9-9Z"/><circle class="cls-3" cx="52.7" cy="64.87" r="0.5"/></svg>