<svg id="Multicolor" xmlns="http://www.w3.org/2000/svg" viewBox="0 0 100 112"><defs><style>.cls-1{fill:#e8f4fa;}.cls-2{fill:#fff;}.cls-3{fill:none;}.cls-10,.cls-11,.cls-12,.cls-3,.cls-9{stroke:#191816;stroke-linecap:round;stroke-linejoin:round;}.cls-4{fill:#191816;opacity:0.15;}.cls-5{fill:#46b000;}.cls-6{fill:#ffe500;}.cls-7{fill:#fff48c;}.cls-8,.cls-9{fill:#6dd627;}.cls-10{fill:#c0dceb;}.cls-11{fill:#87898c;}.cls-12{fill:#e0e0e0;}</style></defs><title>08- eco-power</title><g id="Background"><g id="New_Symbol_4-2" data-name="New Symbol 4"><path class="cls-1" d="M90,56A40,40,0,1,0,13.56,72.5H86.44A39.85,39.85,0,0,0,90,56Z"/><path class="cls-2" d="M13.56,72.5a40,40,0,0,0,72.88,0Z"/><line class="cls-3" x1="11" y1="72.5" x2="89" y2="72.5"/><line class="cls-3" x1="6.5" y1="72.5" x2="9" y2="72.5"/><line class="cls-3" x1="91" y1="72.5" x2="93.5" y2="72.5"/></g></g><g id="Scene"><path class="cls-4" d="M61.63,78.14c0,1-3.34,1.72-11.73,1.72s-11.84-.77-11.84-1.72,3.46-1.73,11.84-1.73S61.63,77.19,61.63,78.14Z"/><path class="cls-5" d="M59.56,76.65a1.15,1.15,0,0,1-1.15,1.15H41.28a1.15,1.15,0,0,1-1.15-1.15v-.92a4.14,4.14,0,0,1,4.14-4.14H55.42a4.14,4.14,0,0,1,4.14,4.14Z"/><path class="cls-6" d="M65.08,45.36a15.18,15.18,0,1,0-28.15,7.87c2.61,4.28,7.34,9.2,7.34,14.21H55.42c0-5,4.83-9.91,7.46-14.21A15,15,0,0,0,65.08,45.36Z"/><path class="cls-7" d="M49.9,35a15.17,15.17,0,0,1,15,12.77,14.82,14.82,0,0,0,.21-2.42,15.18,15.18,0,1,0-30.36,0,16,16,0,0,0,.21,2.42A15.18,15.18,0,0,1,49.9,35Z"/><path class="cls-3" d="M65.08,45.36a15.18,15.18,0,1,0-28.15,7.87c2.61,4.28,7.34,9.2,7.34,14.21H55.42c0-5,4.83-9.91,7.46-14.21A15,15,0,0,0,65.08,45.36Z"/><path class="cls-8" d="M59.56,75.73a4.14,4.14,0,0,0-4.14-4.15H44.27a4.14,4.14,0,0,0-4.14,4.15v.92a1,1,0,0,0,.1.45h.15a4.14,4.14,0,0,1,3.89-2.76H55.42a4.14,4.14,0,0,1,3.89,2.76h.16a1.13,1.13,0,0,0,.09-.45Z"/><path class="cls-3" d="M43.73,71.59H56a3.6,3.6,0,0,1,3.6,3.6v1.61a1,1,0,0,1-1,1H41.13a1,1,0,0,1-1-1V75.18A3.6,3.6,0,0,1,43.73,71.59Z"/><path class="cls-3" d="M49.9,67.44c-4.37-8.79,4.84-12.08.69-17.93"/><path class="cls-9" d="M50.61,49.58c2.59-8.43-9.46-12.23-11.73-7.6C45.53,44.56,39.92,47.72,50.61,49.58Z"/><path class="cls-9" d="M50.64,49.56s.91-7.32,8.81-4.82C56.88,46.65,57.21,50.07,50.64,49.56Z"/><path class="cls-9" d="M48.87,61.06s2-7.11,9.43-3.45C55.47,59.11,55.29,62.54,48.87,61.06Z"/><path class="cls-9" d="M49.7,58.48s1.48-7.24-6.81-7.39C44.72,53.72,43.32,56.86,49.7,58.48Z"/><path class="cls-10" d="M56.8,70.2a1.38,1.38,0,0,1-1.38,1.39H44.27a1.39,1.39,0,0,1,0-2.77H55.42A1.38,1.38,0,0,1,56.8,70.2Z"/><path class="cls-10" d="M56.8,67.44a1.37,1.37,0,0,1-1.38,1.38H44.27a1.38,1.38,0,1,1,0-2.75H55.42A1.37,1.37,0,0,1,56.8,67.44Z"/><path class="cls-3" d="M59.79,77h5.87a3.11,3.11,0,0,1,0,6.21H26a3.45,3.45,0,0,0,0,6.9H40.47"/><path class="cls-11" d="M42.47,86.65h5.28a1,1,0,0,1,1,1v4.9a1,1,0,0,1-1,1H42.47a2,2,0,0,1-2-2v-2.9A2,2,0,0,1,42.47,86.65Z"/><rect class="cls-12" x="48.75" y="88.03" width="4.14" height="4.14"/><line class="cls-3" x1="49.9" y1="26.27" x2="49.9" y2="22.25"/><line class="cls-3" x1="65.28" y1="32.65" x2="68.13" y2="29.81"/><line class="cls-3" x1="71.65" y1="48.04" x2="75.67" y2="48.04"/><line class="cls-3" x1="34.52" y1="32.65" x2="31.68" y2="29.81"/><line class="cls-3" x1="28.16" y1="48.04" x2="24.13" y2="48.04"/></g></svg>