<svg xmlns="http://www.w3.org/2000/svg" viewBox="0 0 25 25"><defs><style>.cls-1{fill:#d8ecff;}.cls-2{fill:#1e87f0;}</style></defs><title>clipboard</title><g id="budicon-clipboard"><polygon class="cls-1" points="15 2 15 14 2 14 2 17 18 17 18 2 15 2"/><polygon class="cls-1" points="20 6 20 19 6 19 6 22 23 22 23 6 20 6"/><path class="cls-2" d="M23,5H19V2a1,1,0,0,0-1-1H2A1,1,0,0,0,1,2V17a1,1,0,0,0,1,1H5v4a1,1,0,0,0,1,1H23a1,1,0,0,0,1-1V6A1,1,0,0,0,23,5ZM2,2H18V17H2ZM23,22H6V18H18a1,1,0,0,0,1-1V6h4Z"/></g></svg>
