<svg xmlns="http://www.w3.org/2000/svg" viewBox="0 0 25 25"><title>user-favorite-b</title><g id="budicon-user-favorite-b"><path d="M10.5,6A5.328,5.328,0,0,0,9,6.22c1.9161.5532,3,2.215,3,4.78,0,2.8584-1.3075,5.51-3,6.5406A2.8851,2.8851,0,0,0,10.5,18c2.3552,0,4.5-3.3364,4.5-7C15,7.8225,13.36,6,10.5,6Z" style="fill:#d8ecff"/><path d="M19.7366,21.4639c-3.5958-1.886-5.87-2.9558-6.8387-3.32a4.4144,4.4144,0,0,1-1.3937.6974c1.2208.5679,2.9615,1.4318,5.2325,2.6229a.4945.4945,0,0,1,.2634.44v.7129a.5913.5913,0,0,1-.51.5933c-1.77.2466-4.8386.6293-7.49.7491.5187.0234,1.0267.04,1.5.04a74.8158,74.8158,0,0,0,8.99-.79.5913.5913,0,0,0,.51-.5933v-.7129A.4945.4945,0,0,0,19.7366,21.4639Z" style="fill:#d8ecff"/><path d="M24.6469,11.7375l-2.2568-.34L21.3634,9.24a.3949.3949,0,0,0-.7267,0L19.61,11.3975l-2.2568.34a.4545.4545,0,0,0-.2225.7642l1.62,1.6379-.3865,2.3374A.4348.4348,0,0,0,18.7666,17a.3807.3807,0,0,0,.1838-.0481L21,15.8342l2.05,1.1177A.3811.3811,0,0,0,23.2335,17a.4349.4349,0,0,0,.4023-.5229L23.2491,14.14l1.62-1.6379A.4544.4544,0,0,0,24.6469,11.7375Zm-2.4677,2.0618c.1095.6616.049.2957.28,1.6917-1.2615-.688-1.0339-.564-1.459-.7957-.4252.2317-.1773.0964-1.459.7957.2146-1.2979.1669-1.01.28-1.6917-.4649-.47-.6126-.6194-1.2244-1.2378,1.512-.228,1.2563-.1895,1.6882-.2544.3228-.6782.1806-.38.7155-1.5034.5807,1.22.4173.8767.7155,1.5034.4318.0649.2083.0313,1.6882.2544C22.7919,13.18,22.6442,13.3291,22.1793,13.7993Z" style="fill:#1e87f0"/><path d="M20.2012,20.5784c-1.4891-.781-4.6778-2.4265-6.4835-3.178A9.6988,9.6988,0,0,0,16,11c0-4.1421-2.4624-6-5.5-6S5,6.8579,5,11a9.7023,9.7023,0,0,0,2.2763,6.3936C5.4615,18.1414,2.2792,19.793.795,20.5771A1.4927,1.4927,0,0,0,0,21.9011v.7161a1.5939,1.5939,0,0,0,1.3723,1.5837A75.9774,75.9774,0,0,0,10.5,25a75.9774,75.9774,0,0,0,9.1277-.7991A1.5939,1.5939,0,0,0,21,22.6172v-.7129A1.4927,1.4927,0,0,0,20.2012,20.5784ZM6,11c0-3.1775,1.64-5,4.5-5S15,7.8225,15,11c0,3.6636-2.1448,7-4.5,7S6,14.6636,6,11ZM20,22.6172a.5913.5913,0,0,1-.51.5933A74.8158,74.8158,0,0,1,10.5,24a74.8158,74.8158,0,0,1-8.99-.79A.5913.5913,0,0,1,1,22.6172v-.7161a.4946.4946,0,0,1,.2621-.44c3.6162-1.9106,5.8973-2.981,6.8253-3.3289A4.02,4.02,0,0,0,10.5,19a4.014,4.014,0,0,0,2.3978-.8564c.9686.3645,3.243,1.4343,6.8387,3.32a.4945.4945,0,0,1,.2634.44Z" style="fill:#1e87f0"/></g></svg>
