<svg xmlns="http://www.w3.org/2000/svg" viewBox="0 0 25 25"><defs><style>.cls-1{fill:#d8ecff;}.cls-2{fill:#1e87f0;}</style></defs><title>desktop-smartphone</title><g id="budicon-desktop-smartphone"><rect class="cls-1" x="22" y="13" width="2" height="10"/><path class="cls-1" d="M1,15H15a0,0,0,0,1,0,0v5a0,0,0,0,1,0,0H3a2,2,0,0,1-2-2V15A0,0,0,0,1,1,15Z"/><path class="cls-1" d="M18,12h2V3H3V13H17A1,1,0,0,1,18,12Z"/><path class="cls-2" d="M15.5,23H14V20h.5a.5.5,0,0,0,0-1H1.5a.5.5,0,0,1-.5-.5V16H14.5a.5.5,0,0,0,0-1H1V1.5A.5.5,0,0,1,1.5,1h20a.5.5,0,0,1,.5.5v8a.5.5,0,0,0,1,0v-8A1.5016,1.5016,0,0,0,21.5,0H1.5A1.5016,1.5016,0,0,0,0,1.5v17A1.5016,1.5016,0,0,0,1.5,20H9v3H7.5a.5.5,0,0,0,0,1h8a.5.5,0,0,0,0-1ZM13,23H10V20h3Z"/><path class="cls-2" d="M24,12H18a1,1,0,0,0-1,1V23a1,1,0,0,0,1,1h6a1,1,0,0,0,1-1V13A1,1,0,0,0,24,12Zm0,11H18V13h6Z"/><path class="cls-2" d="M20.5,22h1a.5.5,0,0,0,0-1h-1a.5.5,0,0,0,0,1Z"/></g></svg>
